<svg xmlns="http://www.w3.org/2000/svg" viewBox="0 0 395.52 119.19569063926987" height="119.19569063926987" width="395.52"><g><svg viewBox="0 0 650.7369765440121 196.10902948946674" height="119.19569063926987" width="395.52"><g transform="matrix(1,0,0,1,255.2169765440122,35.46032150341971)"><svg viewBox="0 0 395.52 125.18838648262731" height="125.18838648262731" width="395.52"><g id="textblocktransform"><svg viewBox="0 0 395.52 125.18838648262731" height="125.18838648262731" width="395.52" id="textblock"><g><svg viewBox="0 0 395.52 125.18838648262731" height="125.18838648262731" width="395.52"><g transform="matrix(1,0,0,1,0,0)"><svg width="395.52" viewBox="2.85 -32.45 105.04 33.25" height="125.18838648262731" data-palette-color="#000000"><path d="M10.95 0.6Q8.85 0.6 7.1 0.23 5.35-0.15 4.23-0.6 3.1-1.05 3.1-1.1L3.1-1.1 2.85-1.6Q2.9-1.9 3.05-3.1 3.2-4.3 3.33-6.23 3.45-8.15 3.45-10.3L3.45-10.3 5.7-10.55Q5.7-6.8 6.2-5 6.7-3.2 8.05-2.53 9.4-1.85 12.2-1.85L12.2-1.85Q15.35-1.85 17.25-3.33 19.15-4.8 19.15-7.35L19.15-7.35Q19.15-8.85 18.13-10.05 17.1-11.25 15.7-12.1 14.3-12.95 11.55-14.4L11.55-14.4Q8.95-15.75 7.3-16.88 5.65-18 4.53-19.55 3.4-21.1 3.4-23.15L3.4-23.15Q3.4-25.75 4.93-27.88 6.45-30 9.08-31.23 11.7-32.45 14.9-32.45L14.9-32.45Q16.9-32.45 18.6-32.18 20.3-31.9 21.3-31.6 22.3-31.3 22.55-31.2L22.55-31.2 22.7-30.9Q22.65-30.6 22.45-29.5 22.25-28.4 22-26.45 21.75-24.5 21.6-22.45L21.6-22.45 19.65-22.25 19.35-22.5Q19.4-22.7 19.45-23.43 19.5-24.15 19.5-25.1L19.5-25.1Q19.5-27.75 18.2-28.75 16.9-29.75 13.55-29.75L13.55-29.75Q10.8-29.75 9.03-28.38 7.25-27 7.25-24.95L7.25-24.95Q7.25-22.95 8.97-21.48 10.7-20 14.05-18.25L14.05-18.25Q17.3-16.6 19-15.53 20.7-14.45 22-12.85 23.3-11.25 23.3-9.15L23.3-9.15Q23.3-6.35 21.73-4.13 20.15-1.9 17.35-0.65 14.55 0.6 10.95 0.6L10.95 0.6ZM29.65 0.4L30-1.9Q32.2-2.3 32.9-3.08 33.6-3.85 33.6-6L33.6-6 33.65-27Q33.65-28.6 33.27-29.15 32.9-29.7 31.8-29.7L31.8-29.7Q31.3-29.7 30.8-29.65 30.3-29.6 30.1-29.6L30.1-29.6 30-29.8 30.35-32Q30.95-31.95 32.6-31.9 34.25-31.85 35.9-31.85L35.9-31.85Q37.45-31.85 39.42-31.93 41.4-32 42.2-32.05L42.2-32.05Q47.4-32.05 50.15-29.75 52.9-27.45 52.9-23.15L52.9-23.15Q52.9-20.35 51.27-17.82 49.65-15.3 47-13.75 44.35-12.2 41.45-12.2L41.45-12.2 37.25-12.2 37.15-7.3Q37.15-4.9 37.3-3.88 37.45-2.85 37.87-2.53 38.3-2.2 39.35-2.2L39.35-2.2Q40.2-2.2 40.97-2.25 41.75-2.3 42.05-2.35L42.05-2.35 42.15-2.15 41.7 0.15Q41.2 0.1 39.87 0.05 38.55 0 37.1 0L37.1 0Q35.1 0 32.42 0.15 29.75 0.3 29.65 0.4L29.65 0.4ZM42.65-14.4Q45.65-14.9 47.17-16.85 48.7-18.8 48.7-22.2L48.7-22.2Q48.7-26.05 46.42-27.83 44.15-29.6 39.3-29.6L39.3-29.6Q38.4-29.6 38.2-29.5 38-29.4 37.95-28.9L37.95-28.9Q37.5-22.55 37.35-15.15L37.35-15.15 42.65-14.4ZM79.65 0.8Q78.4 0.8 76.97-0.48 75.55-1.75 74.34-3.95L74.34-3.95 69-13.65 64.84-13.65 64.7-6.2Q64.7-4.3 64.95-3.48 65.2-2.65 65.9-2.38 66.59-2.1 68.3-2.1L68.3-2.1 68.4-1.9 67.95 0.2Q67.34 0.15 65.55 0.1 63.75 0.05 61.8 0.05L61.8 0.05Q60.05 0.05 58.7 0.1 57.34 0.15 56.9 0.2L56.9 0.2 57.34-2.05Q58.95-2.25 59.75-2.6 60.55-2.95 60.84-3.73 61.15-4.5 61.15-6L61.15-6 61.2-27Q61.2-28.6 60.82-29.15 60.45-29.7 59.34-29.7L59.34-29.7Q58.84-29.7 58.34-29.65 57.84-29.6 57.65-29.6L57.65-29.6 57.55-29.8 57.9-32Q58.5-31.95 60.15-31.9 61.8-31.85 63.45-31.85L63.45-31.85Q65.15-31.85 67.02-31.93 68.9-32 69.59-32.05L69.59-32.05Q74.25-32.05 76.95-29.95 79.65-27.85 79.65-24.2L79.65-24.2Q79.65-21.2 77.72-18.7 75.8-16.2 72.3-14.6L72.3-14.6 77.8-5.9Q79.25-3.5 80.62-2.58 82-1.65 84-1.65L84-1.65 84.2-1.45 83.9 0.25 79.65 0.8ZM70.09-15.95Q70.09-15.8 71.59-16.6 73.09-17.4 74.3-19.05 75.5-20.7 75.5-23.3L75.5-23.3Q75.5-29.9 66.34-29.9L66.34-29.9Q65.84-29.9 65.67-29.68 65.5-29.45 65.45-28.75L65.45-28.75Q65-21.1 64.95-16.45L64.95-16.45 70.09-15.95ZM95.54 0.6Q93.44 0.6 91.69 0.23 89.94-0.15 88.82-0.6 87.69-1.05 87.69-1.1L87.69-1.1 87.44-1.6Q87.49-1.9 87.64-3.1 87.79-4.3 87.92-6.23 88.04-8.15 88.04-10.3L88.04-10.3 90.29-10.55Q90.29-6.8 90.79-5 91.29-3.2 92.64-2.53 93.99-1.85 96.79-1.85L96.79-1.85Q99.94-1.85 101.84-3.33 103.74-4.8 103.74-7.35L103.74-7.35Q103.74-8.85 102.72-10.05 101.69-11.25 100.29-12.1 98.89-12.95 96.14-14.4L96.14-14.4Q93.54-15.75 91.89-16.88 90.24-18 89.12-19.55 87.99-21.1 87.99-23.15L87.99-23.15Q87.99-25.75 89.52-27.88 91.04-30 93.67-31.23 96.29-32.45 99.49-32.45L99.49-32.45Q101.49-32.45 103.19-32.18 104.89-31.9 105.89-31.6 106.89-31.3 107.14-31.2L107.14-31.2 107.29-30.9Q107.24-30.6 107.04-29.5 106.84-28.4 106.59-26.45 106.34-24.5 106.19-22.45L106.19-22.45 104.24-22.25 103.94-22.5Q103.99-22.7 104.04-23.43 104.09-24.15 104.09-25.1L104.09-25.1Q104.09-27.75 102.79-28.75 101.49-29.75 98.14-29.75L98.14-29.75Q95.39-29.75 93.62-28.38 91.84-27 91.84-24.95L91.84-24.95Q91.84-22.95 93.57-21.48 95.29-20 98.64-18.25L98.64-18.25Q101.89-16.6 103.59-15.53 105.29-14.45 106.59-12.85 107.89-11.25 107.89-9.15L107.89-9.15Q107.89-6.35 106.32-4.13 104.74-1.9 101.94-0.65 99.14 0.6 95.54 0.6L95.54 0.6Z" opacity="1" transform="matrix(1,0,0,1,0,0)" fill="#000000" class="wordmark-text-0" data-fill-palette-color="primary" id="text-0"/></svg></g></svg></g></svg></g></svg></g><g><svg viewBox="0 0 196.10902948946674 196.10902948946674" height="196.10902948946674" width="196.10902948946674"><g><svg/></g><g id="icon-0"><svg viewBox="0 0 196.10902948946674 196.10902948946674" height="196.10902948946674" width="196.10902948946674"><g><path d="M0 98.055c0-54.154 43.901-98.055 98.055-98.055 54.154 0 98.055 43.901 98.054 98.055 0 54.154-43.901 98.055-98.054 98.054-54.154 0-98.055-43.901-98.055-98.054zM98.055 184.819c47.919 0 86.765-38.846 86.764-86.764 0-47.919-38.846-86.765-86.764-86.765-47.919 0-86.765 38.846-86.765 86.765 0 47.919 38.846 86.765 86.765 86.764z" data-fill-palette-color="accent" fill="#000000" stroke="transparent"/></g><g transform="matrix(1,0,0,1,47.01531772092477,45.225847995320414)"><svg viewBox="0 0 102.0783940476172 105.6573334988259" height="105.6573334988259" width="102.0783940476172"><g><svg xmlns="http://www.w3.org/2000/svg" viewBox="23.99970849522932 16.00786289380634 462.8925830095413 479.1219187319661" x="0" y="0" height="105.6573334988259" width="102.0783940476172" class="icon-dxe-0" data-fill-palette-color="accent" id="dxe-0" fill="#000000"><g fill="#000000" data-fill-palette-color="accent"><path d="M411.009 307.079L416.666 312.735A8 8 0 0 0 427.98 312.735L484.549 256.167A8 8 0 0 0 484.549 244.853L394.039 154.343A8 8 0 0 0 382.725 154.343L293.242 243.825 237.38 269.216 128.167 160A8 8 0 0 0 116.853 160L26.343 250.51A8 8 0 0 0 26.343 261.824L82.911 318.393A8 8 0 0 0 94.226 318.393L99.882 312.736 128.166 341.02A7.975 7.975 0 0 0 137.14 342.634V369.3A8 8 0 0 0 138.2 373.265 23.93 23.93 0 0 0 145.137 391.931 23.87 23.87 0 0 0 160.808 398.886 23.923 23.923 0 0 0 183.438 421.551 23.88 23.88 0 0 0 190.392 437.185 23.87 23.87 0 0 0 206.062 444.14 23.93 23.93 0 0 0 229.99 466.84C230.436 466.84 230.878 466.825 231.32 466.801L252.612 488.1A24.006 24.006 0 0 0 293.554 472.45 23.986 23.986 0 0 0 316.185 449.819 23.944 23.944 0 0 0 338.8 427.211 24 24 0 0 0 354.433 386.272L353.196 385.036 383.426 334.659ZM388.382 171.313L467.582 250.513 422.327 295.768 343.127 216.568ZM240.277 285.477L296.134 260.087 320.5 284.452 303.529 301.422A23.994 23.994 0 0 1 269.673 301.501L269.63 301.459 269.43 301.27A7.99 7.99 0 0 0 258.278 301.418L232.823 326.874A12 12 0 0 1 215.854 326.874 12.014 12.014 0 0 1 215.854 309.903ZM88.568 301.422L43.313 256.167 122.513 176.967 167.767 222.221ZM133.823 324.049L111.2 301.422 179.083 233.54 201.71 256.167ZM162.107 382.961A8 8 0 0 1 156.451 369.304L167.764 357.99A8 8 0 0 1 179.079 369.3L167.764 380.613A7.95 7.95 0 0 1 162.107 382.961M184.735 405.588A8 8 0 0 1 179.077 391.932L190.393 380.617A8 8 0 1 1 201.705 391.931L190.392 403.245A7.95 7.95 0 0 1 184.735 405.588M207.362 428.216A8 8 0 0 1 201.706 414.559L213.019 403.245A8 8 0 1 1 224.333 414.558L213.019 425.872A7.95 7.95 0 0 1 207.362 428.216M229.99 450.843A8 8 0 0 1 224.333 437.187L235.647 425.872A8 8 0 1 1 246.96 437.186L235.646 448.5A7.94 7.94 0 0 1 229.99 450.843M343.119 408.907A7.99 7.99 0 0 1 331.819 408.907 8 8 0 0 0 320.501 420.217L320.522 420.237A8 8 0 0 1 309.194 431.544L309.18 431.528A8 8 0 0 0 297.88 442.858 7.98 7.98 0 0 1 297.87 454.153 8.007 8.007 0 0 1 286.555 454.153 8 8 0 0 0 275.23 465.453 8 8 0 1 1 263.924 476.781L246.956 459.812 258.274 448.5A23.959 23.959 0 0 0 242.604 407.6 23.85 23.85 0 0 0 220.012 384.977 23.995 23.995 0 0 0 197.346 362.309 23.959 23.959 0 0 0 156.446 346.674L153.136 349.985V327.363L213.016 267.483 224.332 278.8 204.532 298.6A28 28 0 1 0 244.132 338.2L263.932 318.4 343.126 397.593A8.01 8.01 0 0 1 343.119 408.907M341.539 373.375L292.221 324.05A39.7 39.7 0 0 0 314.842 312.735L331.812 295.766 367 330.95ZM309.186 250.509L331.813 227.882 399.7 295.765 377.073 318.393Z" fill="#000000" data-fill-palette-color="accent"/><path d="M211.89 184.257L241.344 228.438A8 8 0 0 0 254.656 228.438L284.1 184.27A88.17 88.17 0 0 0 329.727 136.652L342.727 149.657A8 8 0 0 0 354.042 149.657L399.149 104.551A30.28 30.28 0 0 0 402.921 66.451 31.606 31.606 0 0 0 359.1 57.682L348.4 64.816 337.7 57.682A31.4 31.4 0 0 0 319.292 52.405 88 88 0 1 0 211.89 184.257M248 209.578L235.706 191.137A88 88 0 0 0 260.294 191.137ZM248.438 175.989C248.292 175.989 248.146 176 248 176S247.708 175.99 247.562 175.989L233.354 142.869A98.6 98.6 0 0 1 225.754 112H270.254A98.6 98.6 0 0 1 262.654 142.863ZM275.888 170.399L275.67 170.486A71 71 0 0 1 266.93 173.466L277.354 149.166A114.6 114.6 0 0 0 286.285 112H305.077L317.159 124.082A72.1 72.1 0 0 1 275.888 170.4ZM307.168 75.323A15.63 15.63 0 0 1 328.814 70.993L343.954 81.087A8 8 0 0 0 352.829 81.087L367.97 70.994A15.61 15.61 0 0 1 389.615 75.323 14.234 14.234 0 0 1 387.842 93.236L348.392 132.687 308.942 93.236A14.236 14.236 0 0 1 307.168 75.323M302.949 57.474A31.4 31.4 0 0 0 293.855 66.447 30.29 30.29 0 0 0 291.643 96H286.285A114.6 114.6 0 0 0 277.353 58.83L266.922 34.514A71.6 71.6 0 0 1 302.949 57.474M247.562 32.011C247.709 32.011 247.853 32 248 32S248.291 32.006 248.436 32.007L262.646 65.131A98.6 98.6 0 0 1 270.248 96H225.748A98.6 98.6 0 0 1 233.348 65.137ZM229.062 34.544L218.646 58.836A114.6 114.6 0 0 0 209.715 96H176.455A72.17 72.17 0 0 1 229.065 34.544ZM209.715 112A114.6 114.6 0 0 0 218.647 149.17L229.069 173.47A71 71 0 0 1 220.33 170.49L220.112 170.403A71.82 71.82 0 0 1 176.441 112Z" fill="#000000" data-fill-palette-color="accent"/></g></svg></g></svg></g></svg></g></svg></g></svg></g><defs/></svg>